<svg width="20" height="20" viewBox="0 0 20 20" fill="none" xmlns="http://www.w3.org/2000/svg">
<path fill-rule="evenodd" clip-rule="evenodd" d="M8.92115 0.0022596C12.7461 0.000268139 16.8522 -0.00186969 18.5219 0.00281552C19.3383 0.00281552 20 0.644708 20 1.43523V18.5678C20 19.3587 19.3383 20 18.5219 20H1.47811C0.662105 20 0 19.3587 0 18.568V1.43523C0 0.644708 0.662105 0.00281552 1.47811 0.00281552C2.67703 0.00551058 5.69937 0.00393701 8.92115 0.0022596ZM10.8654 11.638V16.6652H7.87281C7.87281 16.6652 7.91197 8.50708 7.87302 7.66245H10.8654L10.8454 8.96771C11.2393 8.35319 11.9484 7.45108 13.5627 7.45108C15.5318 7.45108 17.008 8.73782 17.008 11.5031V16.6649H14.0155V11.8492C14.0155 10.6389 13.5823 9.81339 12.4995 9.81339C11.3884 9.85213 10.8362 10.7142 10.8654 11.638ZM6.21639 7.66224V12.7612C6.2171 13.2896 6.21687 14.1698 6.21665 15.0053C6.21649 15.6435 6.21633 16.2556 6.2166 16.6649H3.22355V7.66224H6.21639ZM6.41365 4.87825C6.41365 5.74204 5.76397 6.4334 4.7206 6.4334C3.71239 6.44414 3.04481 5.74856 3.04713 4.87804C3.04439 2.81784 6.40502 2.79468 6.41365 4.87825Z" fill="white"/>
</svg>
