<svg width="14" height="14" viewBox="0 0 14 14" fill="none" xmlns="http://www.w3.org/2000/svg">
<path d="M0 0.772333C0 0.346111 0.346111 0 0.772333 0H13.2277C13.6539 0 14 0.346111 14 0.772333V13.2277C13.9998 13.4324 13.9184 13.6288 13.7736 13.7736C13.6288 13.9184 13.4324 13.9998 13.2277 14H0.772333C0.567561 13.9998 0.371235 13.9184 0.226439 13.7736C0.0816426 13.6288 0.000205905 13.4324 0 13.2277V0.772333ZM5.92822 4.21167C5.88141 4.18044 5.82701 4.16249 5.7708 4.15973C5.7146 4.15697 5.6587 4.16951 5.60906 4.196C5.55942 4.2225 5.51789 4.26197 5.4889 4.3102C5.45991 4.35843 5.44455 4.41362 5.44444 4.46989V9.53011C5.44455 9.58638 5.45991 9.64157 5.4889 9.6898C5.51789 9.73803 5.55942 9.7775 5.60906 9.804C5.6587 9.83049 5.7146 9.84303 5.7708 9.84027C5.82701 9.83751 5.88141 9.81956 5.92822 9.78833L9.723 7.259C9.76567 7.2306 9.80067 7.1921 9.82488 7.14691C9.84908 7.10173 9.86175 7.05126 9.86175 7C9.86175 6.94874 9.84908 6.89827 9.82488 6.85309C9.80067 6.8079 9.76567 6.7694 9.723 6.741L5.92744 4.21167H5.92822Z" fill="white"/>
</svg>
