<svg width="16" height="17" viewBox="0 0 16 17" fill="none" xmlns="http://www.w3.org/2000/svg">
<path d="M15 0.5H13C12.7348 0.5 12.4804 0.593692 12.2929 0.760465C12.1054 0.927238 12 1.15343 12 1.38928V16.5H16V1.38928C16 1.15343 15.8946 0.927238 15.7071 0.760465C15.5196 0.593692 15.2652 0.5 15 0.5ZM9 5.8357H7C6.73478 5.8357 6.48043 5.9294 6.29289 6.09617C6.10536 6.26294 6 6.48914 6 6.72499V16.5H10V6.72499C10 6.48914 9.89464 6.26294 9.70711 6.09617C9.51957 5.9294 9.26522 5.8357 9 5.8357ZM3 11.1714H1C0.734784 11.1714 0.48043 11.2651 0.292893 11.4319C0.105357 11.5986 0 11.8248 0 12.0607V16.5H4V12.0607C4 11.8248 3.89464 11.5986 3.70711 11.4319C3.51957 11.2651 3.26522 11.1714 3 11.1714Z" fill="#EE2835"/>
</svg>
