<svg width="26" height="26" viewBox="0 0 26 26" fill="none" xmlns="http://www.w3.org/2000/svg">
<path d="M23 26H20.5V23.5238C20.5 22.5387 20.1049 21.594 19.4017 20.8974C18.6984 20.2008 17.7446 19.8095 16.75 19.8095H9.25C8.25544 19.8095 7.30161 20.2008 6.59835 20.8974C5.89509 21.594 5.5 22.5387 5.5 23.5238V26H3V23.5238C3 21.882 3.65848 20.3074 4.83058 19.1465C6.00269 17.9855 7.5924 17.3333 9.25 17.3333H16.75C18.4076 17.3333 19.9973 17.9855 21.1694 19.1465C22.3415 20.3074 23 21.882 23 23.5238V26ZM13 14.8571C12.0151 14.8571 11.0398 14.665 10.1299 14.2917C9.21993 13.9184 8.39314 13.3712 7.6967 12.6814C7.00026 11.9916 6.44781 11.1726 6.0709 10.2714C5.69399 9.37009 5.5 8.40411 5.5 7.42857C5.5 6.45304 5.69399 5.48706 6.0709 4.58578C6.44781 3.6845 7.00026 2.86558 7.6967 2.17578C8.39314 1.48597 9.21993 0.938787 10.1299 0.565466C11.0398 0.192146 12.0151 -1.45366e-08 13 0C14.9891 2.9358e-08 16.8968 0.782651 18.3033 2.17578C19.7098 3.56891 20.5 5.45839 20.5 7.42857C20.5 9.39875 19.7098 11.2882 18.3033 12.6814C16.8968 14.0745 14.9891 14.8571 13 14.8571ZM13 12.381C14.3261 12.381 15.5979 11.8592 16.5355 10.9304C17.4732 10.0017 18 8.74202 18 7.42857C18 6.11512 17.4732 4.85546 16.5355 3.92671C15.5979 2.99796 14.3261 2.47619 13 2.47619C11.6739 2.47619 10.4021 2.99796 9.46447 3.92671C8.52678 4.85546 8 6.11512 8 7.42857C8 8.74202 8.52678 10.0017 9.46447 10.9304C10.4021 11.8592 11.6739 12.381 13 12.381Z" fill="white"/>
</svg>
