<svg xmlns="http://www.w3.org/2000/svg" xmlns:xlink="http://www.w3.org/1999/xlink" width="500" zoomAndPan="magnify" viewBox="0 0 375 374.999991" height="500" preserveAspectRatio="xMidYMid meet" version="1.0"><defs><clipPath id="id1"><path d="M 0 62.726562 L 375 62.726562 L 375 146 L 0 146 Z M 0 62.726562 " clip-rule="nonzero"/></clipPath><clipPath id="id2"><path d="M 0 229 L 375 229 L 375 312.476562 L 0 312.476562 Z M 0 229 " clip-rule="nonzero"/></clipPath></defs><g clip-path="url(#id1)"><path fill="#ff9932" d="M 0.347656 62.726562 L 374.65625 62.726562 L 374.65625 145.976562 L 0.347656 145.976562 Z M 0.347656 62.726562 " fill-opacity="1" fill-rule="nonzero"/></g><path fill="#ffffff" d="M 0.347656 145.976562 L 374.65625 145.976562 L 374.65625 229.226562 L 0.347656 229.226562 Z M 0.347656 145.976562 " fill-opacity="1" fill-rule="nonzero"/><g clip-path="url(#id2)"><path fill="#128807" d="M 0.347656 229.226562 L 374.65625 229.226562 L 374.65625 312.476562 L 0.347656 312.476562 Z M 0.347656 229.226562 " fill-opacity="1" fill-rule="nonzero"/></g><path fill="#000080" d="M 226.179688 187.601562 C 226.179688 188.871094 226.117188 190.136719 225.992188 191.398438 C 225.867188 192.660156 225.683594 193.910156 225.433594 195.15625 C 225.1875 196.398438 224.878906 197.625 224.511719 198.839844 C 224.144531 200.054688 223.71875 201.246094 223.234375 202.417969 C 222.75 203.585938 222.207031 204.734375 221.613281 205.851562 C 221.015625 206.96875 220.363281 208.054688 219.660156 209.109375 C 218.957031 210.164062 218.203125 211.179688 217.398438 212.160156 C 216.59375 213.140625 215.746094 214.078125 214.851562 214.976562 C 213.953125 215.871094 213.015625 216.722656 212.039062 217.527344 C 211.058594 218.332031 210.042969 219.085938 208.988281 219.789062 C 207.933594 220.492188 206.851562 221.144531 205.734375 221.742188 C 204.617188 222.339844 203.472656 222.882812 202.300781 223.367188 C 201.132812 223.851562 199.941406 224.277344 198.726562 224.648438 C 197.515625 225.015625 196.289062 225.324219 195.046875 225.570312 C 193.804688 225.816406 192.550781 226.003906 191.292969 226.128906 C 190.03125 226.25 188.765625 226.3125 187.5 226.3125 C 186.234375 226.3125 184.96875 226.25 183.707031 226.128906 C 182.449219 226.003906 181.195312 225.816406 179.953125 225.570312 C 178.710938 225.324219 177.484375 225.015625 176.273438 224.648438 C 175.058594 224.277344 173.867188 223.851562 172.699219 223.367188 C 171.527344 222.882812 170.382812 222.339844 169.265625 221.742188 C 168.148438 221.144531 167.066406 220.492188 166.011719 219.789062 C 164.957031 219.085938 163.941406 218.332031 162.960938 217.527344 C 161.984375 216.722656 161.046875 215.871094 160.148438 214.976562 C 159.253906 214.078125 158.40625 213.140625 157.601562 212.160156 C 156.796875 211.179688 156.042969 210.164062 155.339844 209.109375 C 154.636719 208.054688 153.984375 206.96875 153.386719 205.851562 C 152.792969 204.734375 152.25 203.585938 151.765625 202.417969 C 151.28125 201.246094 150.855469 200.054688 150.488281 198.839844 C 150.121094 197.625 149.8125 196.398438 149.566406 195.15625 C 149.316406 193.910156 149.132812 192.660156 149.007812 191.398438 C 148.882812 190.136719 148.820312 188.871094 148.820312 187.601562 C 148.820312 186.335938 148.882812 185.070312 149.007812 183.808594 C 149.132812 182.546875 149.316406 181.292969 149.566406 180.050781 C 149.8125 178.804688 150.121094 177.578125 150.488281 176.363281 C 150.855469 175.152344 151.28125 173.960938 151.765625 172.789062 C 152.25 171.617188 152.792969 170.472656 153.386719 169.355469 C 153.984375 168.234375 154.636719 167.148438 155.339844 166.09375 C 156.042969 165.042969 156.796875 164.023438 157.601562 163.042969 C 158.40625 162.0625 159.253906 161.125 160.148438 160.230469 C 161.046875 159.332031 161.984375 158.480469 162.960938 157.679688 C 163.941406 156.875 164.957031 156.121094 166.011719 155.414062 C 167.066406 154.710938 168.148438 154.058594 169.265625 153.460938 C 170.382812 152.863281 171.527344 152.324219 172.699219 151.835938 C 173.867188 151.351562 175.058594 150.925781 176.273438 150.558594 C 177.484375 150.191406 178.710938 149.882812 179.953125 149.636719 C 181.195312 149.386719 182.449219 149.203125 183.707031 149.078125 C 184.96875 148.953125 186.234375 148.890625 187.5 148.890625 C 188.765625 148.890625 190.03125 148.953125 191.292969 149.078125 C 192.550781 149.203125 193.804688 149.386719 195.046875 149.636719 C 196.289062 149.882812 197.515625 150.191406 198.726562 150.558594 C 199.941406 150.925781 201.132812 151.351562 202.300781 151.835938 C 203.472656 152.324219 204.617188 152.863281 205.734375 153.460938 C 206.851562 154.058594 207.933594 154.710938 208.988281 155.414062 C 210.042969 156.121094 211.058594 156.875 212.039062 157.679688 C 213.015625 158.480469 213.953125 159.332031 214.851562 160.230469 C 215.746094 161.125 216.59375 162.0625 217.398438 163.042969 C 218.203125 164.023438 218.957031 165.042969 219.660156 166.09375 C 220.363281 167.148438 221.015625 168.234375 221.613281 169.355469 C 222.207031 170.472656 222.75 171.617188 223.234375 172.789062 C 223.71875 173.960938 224.144531 175.152344 224.511719 176.363281 C 224.878906 177.578125 225.1875 178.804688 225.433594 180.050781 C 225.683594 181.292969 225.867188 182.546875 225.992188 183.808594 C 226.117188 185.070312 226.179688 186.335938 226.179688 187.601562 Z M 226.179688 187.601562 " fill-opacity="1" fill-rule="nonzero"/><path fill="#ffffff" d="M 221.605469 187.601562 C 221.605469 188.71875 221.550781 189.835938 221.4375 190.949219 C 221.328125 192.058594 221.167969 193.164062 220.949219 194.261719 C 220.730469 195.359375 220.460938 196.441406 220.136719 197.511719 C 219.8125 198.582031 219.433594 199.632812 219.007812 200.664062 C 218.582031 201.695312 218.101562 202.707031 217.578125 203.691406 C 217.050781 204.679688 216.476562 205.636719 215.855469 206.566406 C 215.234375 207.496094 214.570312 208.390625 213.863281 209.253906 C 213.152344 210.121094 212.40625 210.945312 211.613281 211.738281 C 210.824219 212.527344 210 213.277344 209.136719 213.988281 C 208.273438 214.695312 207.375 215.363281 206.445312 215.980469 C 205.519531 216.601562 204.5625 217.175781 203.578125 217.703125 C 202.589844 218.230469 201.582031 218.707031 200.550781 219.136719 C 199.519531 219.5625 198.46875 219.941406 197.398438 220.265625 C 196.332031 220.589844 195.25 220.859375 194.152344 221.078125 C 193.058594 221.296875 191.953125 221.460938 190.84375 221.570312 C 189.730469 221.679688 188.617188 221.734375 187.5 221.734375 C 186.382812 221.734375 185.269531 221.679688 184.15625 221.570312 C 183.046875 221.460938 181.941406 221.296875 180.847656 221.078125 C 179.75 220.859375 178.667969 220.589844 177.601562 220.265625 C 176.53125 219.941406 175.480469 219.5625 174.449219 219.136719 C 173.417969 218.707031 172.410156 218.230469 171.421875 217.703125 C 170.4375 217.175781 169.480469 216.601562 168.554688 215.980469 C 167.625 215.363281 166.726562 214.695312 165.863281 213.988281 C 165 213.277344 164.175781 212.527344 163.386719 211.738281 C 162.59375 210.945312 161.847656 210.121094 161.136719 209.253906 C 160.429688 208.390625 159.765625 207.496094 159.144531 206.566406 C 158.523438 205.636719 157.949219 204.679688 157.421875 203.691406 C 156.898438 202.707031 156.417969 201.695312 155.992188 200.664062 C 155.566406 199.632812 155.1875 198.582031 154.863281 197.511719 C 154.539062 196.441406 154.269531 195.359375 154.050781 194.261719 C 153.832031 193.164062 153.671875 192.058594 153.558594 190.949219 C 153.449219 189.835938 153.394531 188.71875 153.394531 187.601562 C 153.394531 186.484375 153.449219 185.371094 153.558594 184.257812 C 153.671875 183.144531 153.832031 182.039062 154.050781 180.941406 C 154.269531 179.847656 154.539062 178.765625 154.863281 177.695312 C 155.1875 176.625 155.566406 175.574219 155.992188 174.539062 C 156.417969 173.507812 156.898438 172.5 157.421875 171.511719 C 157.949219 170.527344 158.523438 169.570312 159.144531 168.640625 C 159.765625 167.710938 160.429688 166.8125 161.136719 165.949219 C 161.847656 165.085938 162.59375 164.257812 163.386719 163.46875 C 164.175781 162.675781 165 161.925781 165.863281 161.21875 C 166.726562 160.507812 167.625 159.84375 168.554688 159.222656 C 169.480469 158.601562 170.4375 158.027344 171.421875 157.5 C 172.410156 156.972656 173.417969 156.496094 174.449219 156.066406 C 175.480469 155.640625 176.53125 155.265625 177.601562 154.941406 C 178.667969 154.613281 179.75 154.34375 180.847656 154.125 C 181.941406 153.90625 183.046875 153.742188 184.15625 153.632812 C 185.269531 153.523438 186.382812 153.46875 187.5 153.46875 C 188.617188 153.46875 189.730469 153.523438 190.84375 153.632812 C 191.953125 153.742188 193.058594 153.90625 194.152344 154.125 C 195.25 154.34375 196.332031 154.613281 197.398438 154.941406 C 198.46875 155.265625 199.519531 155.640625 200.550781 156.066406 C 201.582031 156.496094 202.589844 156.972656 203.578125 157.5 C 204.5625 158.027344 205.519531 158.601562 206.445312 159.222656 C 207.375 159.84375 208.273438 160.507812 209.136719 161.21875 C 210 161.925781 210.824219 162.675781 211.613281 163.46875 C 212.40625 164.257812 213.152344 165.085938 213.863281 165.949219 C 214.570312 166.8125 215.234375 167.710938 215.855469 168.640625 C 216.476562 169.570312 217.050781 170.527344 217.578125 171.511719 C 218.101562 172.5 218.582031 173.507812 219.007812 174.539062 C 219.433594 175.574219 219.8125 176.625 220.136719 177.695312 C 220.460938 178.765625 220.730469 179.847656 220.949219 180.941406 C 221.167969 182.039062 221.328125 183.144531 221.4375 184.257812 C 221.550781 185.371094 221.605469 186.484375 221.605469 187.601562 Z M 221.605469 187.601562 " fill-opacity="1" fill-rule="nonzero"/><path fill="#000080" d="M 223.375 192.328125 C 223.335938 192.601562 223.25 192.859375 223.113281 193.097656 C 222.976562 193.335938 222.796875 193.539062 222.578125 193.707031 C 222.359375 193.875 222.117188 193.996094 221.851562 194.066406 C 221.582031 194.140625 221.3125 194.15625 221.039062 194.121094 C 220.765625 194.085938 220.511719 193.996094 220.273438 193.859375 C 220.035156 193.722656 219.828125 193.542969 219.664062 193.324219 C 219.496094 193.105469 219.375 192.863281 219.304688 192.597656 C 219.230469 192.328125 219.214844 192.058594 219.25 191.785156 C 219.285156 191.511719 219.375 191.253906 219.511719 191.015625 C 219.648438 190.777344 219.828125 190.574219 220.046875 190.40625 C 220.265625 190.238281 220.507812 190.117188 220.773438 190.046875 C 221.039062 189.976562 221.308594 189.957031 221.582031 189.992188 C 221.855469 190.03125 222.113281 190.117188 222.351562 190.253906 C 222.589844 190.394531 222.792969 190.570312 222.960938 190.789062 C 223.128906 191.007812 223.25 191.253906 223.320312 191.519531 C 223.390625 191.785156 223.410156 192.054688 223.375 192.328125 Z M 223.375 192.328125 " fill-opacity="1" fill-rule="nonzero"/><path fill="#000080" d="M 187.5 221.734375 L 188.746094 201.753906 C 188.191406 200.089844 187.777344 195.371094 187.5 187.601562 C 187.222656 195.371094 186.808594 200.089844 186.253906 201.753906 Z M 187.5 221.734375 " fill-opacity="1" fill-rule="nonzero"/><path fill="#000080" d="M 220.929688 201.460938 C 220.824219 201.714844 220.671875 201.941406 220.476562 202.136719 C 220.28125 202.332031 220.058594 202.480469 219.804688 202.585938 C 219.546875 202.691406 219.285156 202.746094 219.007812 202.746094 C 218.730469 202.746094 218.464844 202.691406 218.210938 202.585938 C 217.957031 202.480469 217.730469 202.332031 217.539062 202.136719 C 217.34375 201.941406 217.191406 201.714844 217.085938 201.460938 C 216.980469 201.207031 216.929688 200.941406 216.929688 200.664062 C 216.929688 200.386719 216.980469 200.121094 217.085938 199.867188 C 217.191406 199.613281 217.34375 199.386719 217.539062 199.191406 C 217.730469 198.996094 217.957031 198.847656 218.210938 198.742188 C 218.464844 198.636719 218.730469 198.582031 219.007812 198.582031 C 219.285156 198.582031 219.546875 198.636719 219.804688 198.742188 C 220.058594 198.847656 220.28125 198.996094 220.476562 199.191406 C 220.671875 199.386719 220.824219 199.613281 220.929688 199.867188 C 221.035156 200.121094 221.085938 200.386719 221.085938 200.664062 C 221.085938 200.941406 221.035156 201.207031 220.929688 201.460938 Z M 220.929688 201.460938 " fill-opacity="1" fill-rule="nonzero"/><path fill="#000080" d="M 178.671875 220.570312 L 185.046875 201.597656 C 184.941406 199.84375 185.757812 195.179688 187.5 187.601562 C 185.222656 195.035156 183.601562 199.484375 182.636719 200.949219 Z M 178.671875 220.570312 " fill-opacity="1" fill-rule="nonzero"/><path fill="#000080" d="M 216.207031 209.648438 C 216.039062 209.867188 215.835938 210.046875 215.597656 210.183594 C 215.355469 210.320312 215.101562 210.410156 214.828125 210.445312 C 214.554688 210.480469 214.285156 210.460938 214.019531 210.390625 C 213.75 210.320312 213.507812 210.199219 213.289062 210.03125 C 213.070312 209.863281 212.894531 209.660156 212.753906 209.421875 C 212.617188 209.183594 212.53125 208.925781 212.496094 208.652344 C 212.457031 208.378906 212.476562 208.109375 212.546875 207.84375 C 212.617188 207.574219 212.738281 207.332031 212.90625 207.113281 C 213.074219 206.894531 213.277344 206.714844 213.515625 206.578125 C 213.753906 206.441406 214.011719 206.351562 214.285156 206.316406 C 214.558594 206.28125 214.828125 206.300781 215.09375 206.371094 C 215.359375 206.441406 215.601562 206.5625 215.820312 206.730469 C 216.039062 206.898438 216.21875 207.101562 216.355469 207.339844 C 216.496094 207.578125 216.582031 207.835938 216.617188 208.109375 C 216.652344 208.382812 216.636719 208.652344 216.566406 208.917969 C 216.492188 209.1875 216.375 209.429688 216.207031 209.648438 Z M 216.207031 209.648438 " fill-opacity="1" fill-rule="nonzero"/><path fill="#000080" d="M 170.449219 217.160156 L 181.511719 200.484375 C 181.863281 198.761719 183.859375 194.46875 187.5 187.601562 C 183.378906 194.191406 180.660156 198.070312 179.347656 199.234375 Z M 170.449219 217.160156 " fill-opacity="1" fill-rule="nonzero"/><path fill="#000080" d="M 209.527344 216.332031 C 209.308594 216.5 209.066406 216.621094 208.800781 216.691406 C 208.53125 216.761719 208.261719 216.78125 207.988281 216.746094 C 207.714844 216.707031 207.460938 216.621094 207.222656 216.484375 C 206.984375 216.347656 206.777344 216.167969 206.609375 215.949219 C 206.445312 215.730469 206.324219 215.488281 206.253906 215.21875 C 206.179688 214.953125 206.164062 214.683594 206.199219 214.410156 C 206.234375 214.136719 206.320312 213.878906 206.460938 213.640625 C 206.597656 213.402344 206.777344 213.199219 206.996094 213.03125 C 207.214844 212.863281 207.457031 212.742188 207.722656 212.671875 C 207.988281 212.601562 208.257812 212.582031 208.53125 212.617188 C 208.804688 212.652344 209.0625 212.742188 209.300781 212.878906 C 209.539062 213.015625 209.742188 213.195312 209.910156 213.414062 C 210.078125 213.632812 210.199219 213.875 210.269531 214.144531 C 210.339844 214.410156 210.359375 214.679688 210.324219 214.953125 C 210.285156 215.226562 210.199219 215.484375 210.0625 215.722656 C 209.925781 215.960938 209.746094 216.164062 209.527344 216.332031 Z M 209.527344 216.332031 " fill-opacity="1" fill-rule="nonzero"/><path fill="#000080" d="M 163.386719 211.738281 L 178.382812 198.492188 C 179.167969 196.921875 182.207031 193.292969 187.5 187.601562 C 181.8125 192.898438 178.1875 195.941406 176.617188 196.726562 Z M 163.386719 211.738281 " fill-opacity="1" fill-rule="nonzero"/><path fill="#000080" d="M 201.347656 221.058594 C 201.09375 221.164062 200.828125 221.21875 200.550781 221.21875 C 200.273438 221.21875 200.011719 221.164062 199.753906 221.058594 C 199.5 220.953125 199.277344 220.804688 199.082031 220.609375 C 198.886719 220.414062 198.734375 220.1875 198.628906 219.933594 C 198.523438 219.679688 198.472656 219.414062 198.472656 219.136719 C 198.472656 218.859375 198.523438 218.59375 198.628906 218.339844 C 198.734375 218.085938 198.886719 217.859375 199.082031 217.664062 C 199.277344 217.46875 199.5 217.320312 199.753906 217.214844 C 200.011719 217.109375 200.273438 217.054688 200.550781 217.054688 C 200.828125 217.054688 201.09375 217.109375 201.347656 217.214844 C 201.601562 217.320312 201.828125 217.46875 202.019531 217.664062 C 202.214844 217.859375 202.367188 218.085938 202.472656 218.339844 C 202.578125 218.59375 202.628906 218.859375 202.628906 219.136719 C 202.628906 219.414062 202.578125 219.679688 202.472656 219.933594 C 202.367188 220.1875 202.214844 220.414062 202.019531 220.609375 C 201.828125 220.804688 201.601562 220.953125 201.347656 221.058594 Z M 201.347656 221.058594 " fill-opacity="1" fill-rule="nonzero"/><path fill="#000080" d="M 157.964844 204.667969 L 175.878906 195.761719 C 177.042969 194.445312 180.914062 191.726562 187.5 187.601562 C 180.636719 191.246094 176.347656 193.246094 174.628906 193.597656 Z M 157.964844 204.667969 " fill-opacity="1" fill-rule="nonzero"/><path fill="#000080" d="M 192.222656 223.507812 C 191.949219 223.542969 191.679688 223.523438 191.414062 223.453125 C 191.148438 223.382812 190.902344 223.261719 190.683594 223.09375 C 190.464844 222.925781 190.289062 222.722656 190.152344 222.484375 C 190.011719 222.246094 189.925781 221.988281 189.890625 221.714844 C 189.855469 221.441406 189.871094 221.171875 189.941406 220.902344 C 190.015625 220.636719 190.132812 220.394531 190.300781 220.175781 C 190.46875 219.957031 190.671875 219.777344 190.910156 219.640625 C 191.152344 219.503906 191.40625 219.414062 191.679688 219.378906 C 191.953125 219.34375 192.222656 219.359375 192.488281 219.433594 C 192.757812 219.503906 193 219.625 193.21875 219.792969 C 193.4375 219.960938 193.613281 220.164062 193.753906 220.402344 C 193.890625 220.640625 193.976562 220.898438 194.011719 221.171875 C 194.050781 221.445312 194.03125 221.714844 193.960938 221.980469 C 193.890625 222.246094 193.769531 222.492188 193.601562 222.710938 C 193.433594 222.929688 193.230469 223.105469 192.992188 223.246094 C 192.753906 223.382812 192.496094 223.46875 192.222656 223.507812 Z M 192.222656 223.507812 " fill-opacity="1" fill-rule="nonzero"/><path fill="#000080" d="M 154.558594 196.4375 L 174.164062 192.472656 C 175.628906 191.503906 180.074219 189.882812 187.5 187.601562 C 179.929688 189.34375 175.269531 190.164062 173.519531 190.058594 Z M 154.558594 196.4375 " fill-opacity="1" fill-rule="nonzero"/><path fill="#000080" d="M 182.777344 223.507812 C 182.503906 223.46875 182.246094 223.382812 182.007812 223.246094 C 181.769531 223.105469 181.566406 222.929688 181.398438 222.710938 C 181.230469 222.492188 181.109375 222.246094 181.039062 221.980469 C 180.96875 221.714844 180.949219 221.445312 180.988281 221.171875 C 181.023438 220.898438 181.109375 220.640625 181.246094 220.402344 C 181.386719 220.164062 181.5625 219.960938 181.78125 219.792969 C 182 219.625 182.242188 219.503906 182.511719 219.433594 C 182.777344 219.359375 183.046875 219.34375 183.320312 219.378906 C 183.59375 219.414062 183.847656 219.503906 184.089844 219.640625 C 184.328125 219.777344 184.53125 219.957031 184.699219 220.175781 C 184.867188 220.394531 184.984375 220.636719 185.058594 220.902344 C 185.128906 221.171875 185.144531 221.441406 185.109375 221.714844 C 185.074219 221.988281 184.988281 222.246094 184.847656 222.484375 C 184.710938 222.722656 184.535156 222.925781 184.316406 223.09375 C 184.097656 223.261719 183.851562 223.382812 183.585938 223.453125 C 183.320312 223.523438 183.050781 223.542969 182.777344 223.507812 Z M 182.777344 223.507812 " fill-opacity="1" fill-rule="nonzero"/><path fill="#000080" d="M 153.394531 187.601562 L 173.359375 188.851562 C 175.023438 188.296875 179.738281 187.878906 187.5 187.601562 C 179.738281 187.324219 175.023438 186.910156 173.359375 186.351562 Z M 153.394531 187.601562 " fill-opacity="1" fill-rule="nonzero"/><path fill="#000080" d="M 173.652344 221.058594 C 173.398438 220.953125 173.171875 220.804688 172.980469 220.609375 C 172.785156 220.414062 172.632812 220.1875 172.527344 219.933594 C 172.421875 219.679688 172.371094 219.414062 172.371094 219.136719 C 172.371094 218.859375 172.421875 218.59375 172.527344 218.339844 C 172.632812 218.085938 172.785156 217.859375 172.980469 217.664062 C 173.171875 217.46875 173.398438 217.320312 173.652344 217.214844 C 173.90625 217.109375 174.171875 217.054688 174.449219 217.054688 C 174.726562 217.054688 174.988281 217.109375 175.246094 217.214844 C 175.5 217.320312 175.722656 217.46875 175.917969 217.664062 C 176.113281 217.859375 176.265625 218.085938 176.371094 218.339844 C 176.476562 218.59375 176.527344 218.859375 176.527344 219.136719 C 176.527344 219.414062 176.476562 219.679688 176.371094 219.933594 C 176.265625 220.1875 176.113281 220.414062 175.917969 220.609375 C 175.722656 220.804688 175.5 220.953125 175.246094 221.058594 C 174.988281 221.164062 174.726562 221.21875 174.449219 221.21875 C 174.171875 221.21875 173.90625 221.164062 173.652344 221.058594 Z M 173.652344 221.058594 " fill-opacity="1" fill-rule="nonzero"/><path fill="#000080" d="M 154.558594 178.769531 L 173.519531 185.144531 C 175.269531 185.039062 179.929688 185.859375 187.5 187.601562 C 180.074219 185.324219 175.628906 183.699219 174.164062 182.734375 Z M 154.558594 178.769531 " fill-opacity="1" fill-rule="nonzero"/><path fill="#000080" d="M 165.472656 216.332031 C 165.253906 216.164062 165.074219 215.960938 164.9375 215.722656 C 164.800781 215.484375 164.714844 215.226562 164.675781 214.953125 C 164.640625 214.679688 164.660156 214.410156 164.730469 214.144531 C 164.800781 213.875 164.921875 213.632812 165.089844 213.414062 C 165.257812 213.195312 165.460938 213.015625 165.699219 212.878906 C 165.9375 212.742188 166.195312 212.652344 166.46875 212.617188 C 166.742188 212.582031 167.011719 212.601562 167.277344 212.671875 C 167.542969 212.742188 167.785156 212.863281 168.003906 213.03125 C 168.222656 213.199219 168.402344 213.402344 168.539062 213.640625 C 168.679688 213.878906 168.765625 214.136719 168.800781 214.410156 C 168.835938 214.683594 168.820312 214.953125 168.746094 215.21875 C 168.675781 215.488281 168.554688 215.730469 168.390625 215.949219 C 168.222656 216.167969 168.015625 216.347656 167.777344 216.484375 C 167.539062 216.621094 167.285156 216.707031 167.011719 216.746094 C 166.738281 216.78125 166.46875 216.761719 166.199219 216.691406 C 165.933594 216.621094 165.691406 216.5 165.472656 216.332031 Z M 165.472656 216.332031 " fill-opacity="1" fill-rule="nonzero"/><path fill="#000080" d="M 157.964844 170.535156 L 174.628906 181.609375 C 176.347656 181.960938 180.636719 183.957031 187.5 187.601562 C 180.914062 183.476562 177.042969 180.757812 175.878906 179.445312 Z M 157.964844 170.535156 " fill-opacity="1" fill-rule="nonzero"/><path fill="#000080" d="M 158.792969 209.648438 C 158.625 209.429688 158.507812 209.1875 158.433594 208.917969 C 158.363281 208.652344 158.347656 208.382812 158.382812 208.109375 C 158.417969 207.835938 158.503906 207.578125 158.644531 207.339844 C 158.78125 207.101562 158.960938 206.898438 159.179688 206.730469 C 159.398438 206.5625 159.640625 206.441406 159.90625 206.371094 C 160.171875 206.300781 160.441406 206.28125 160.714844 206.316406 C 160.988281 206.351562 161.246094 206.441406 161.484375 206.578125 C 161.722656 206.714844 161.925781 206.894531 162.09375 207.113281 C 162.261719 207.332031 162.382812 207.574219 162.453125 207.84375 C 162.523438 208.109375 162.542969 208.378906 162.503906 208.652344 C 162.46875 208.925781 162.382812 209.183594 162.246094 209.421875 C 162.105469 209.660156 161.929688 209.863281 161.710938 210.03125 C 161.492188 210.199219 161.25 210.320312 160.980469 210.390625 C 160.714844 210.460938 160.445312 210.480469 160.171875 210.445312 C 159.898438 210.410156 159.644531 210.320312 159.402344 210.183594 C 159.164062 210.046875 158.960938 209.867188 158.792969 209.648438 Z M 158.792969 209.648438 " fill-opacity="1" fill-rule="nonzero"/><path fill="#000080" d="M 163.386719 163.46875 L 176.617188 178.476562 C 178.1875 179.261719 181.8125 182.304688 187.5 187.601562 C 182.207031 181.910156 179.167969 178.28125 178.382812 176.710938 Z M 163.386719 163.46875 " fill-opacity="1" fill-rule="nonzero"/><path fill="#000080" d="M 154.070312 201.460938 C 153.964844 201.207031 153.914062 200.941406 153.914062 200.664062 C 153.914062 200.386719 153.964844 200.121094 154.070312 199.867188 C 154.175781 199.613281 154.328125 199.386719 154.523438 199.191406 C 154.71875 198.996094 154.941406 198.847656 155.195312 198.742188 C 155.453125 198.636719 155.714844 198.582031 155.992188 198.582031 C 156.269531 198.582031 156.535156 198.636719 156.789062 198.742188 C 157.042969 198.847656 157.269531 198.996094 157.460938 199.191406 C 157.65625 199.386719 157.808594 199.613281 157.914062 199.867188 C 158.019531 200.121094 158.070312 200.386719 158.070312 200.664062 C 158.070312 200.941406 158.019531 201.207031 157.914062 201.460938 C 157.808594 201.714844 157.65625 201.941406 157.460938 202.136719 C 157.269531 202.332031 157.042969 202.480469 156.789062 202.585938 C 156.535156 202.691406 156.269531 202.746094 155.992188 202.746094 C 155.714844 202.746094 155.453125 202.691406 155.195312 202.585938 C 154.941406 202.480469 154.71875 202.332031 154.523438 202.136719 C 154.328125 201.941406 154.175781 201.714844 154.070312 201.460938 Z M 154.070312 201.460938 " fill-opacity="1" fill-rule="nonzero"/><path fill="#000080" d="M 170.449219 158.042969 L 179.347656 175.96875 C 180.660156 177.132812 183.378906 181.011719 187.5 187.601562 C 183.859375 180.734375 181.863281 176.441406 181.511719 174.722656 Z M 170.449219 158.042969 " fill-opacity="1" fill-rule="nonzero"/><path fill="#000080" d="M 151.625 192.328125 C 151.589844 192.054688 151.609375 191.785156 151.679688 191.519531 C 151.75 191.253906 151.871094 191.007812 152.039062 190.789062 C 152.207031 190.570312 152.410156 190.394531 152.648438 190.253906 C 152.886719 190.117188 153.144531 190.03125 153.417969 189.992188 C 153.691406 189.957031 153.960938 189.976562 154.226562 190.046875 C 154.492188 190.117188 154.734375 190.238281 154.953125 190.40625 C 155.171875 190.574219 155.351562 190.777344 155.488281 191.015625 C 155.625 191.253906 155.714844 191.511719 155.75 191.785156 C 155.785156 192.058594 155.769531 192.328125 155.695312 192.597656 C 155.625 192.863281 155.503906 193.105469 155.335938 193.324219 C 155.171875 193.542969 154.964844 193.722656 154.726562 193.859375 C 154.488281 193.996094 154.234375 194.085938 153.960938 194.121094 C 153.6875 194.15625 153.417969 194.140625 153.148438 194.066406 C 152.882812 193.996094 152.640625 193.875 152.421875 193.707031 C 152.203125 193.539062 152.023438 193.335938 151.886719 193.097656 C 151.75 192.859375 151.664062 192.601562 151.625 192.328125 Z M 151.625 192.328125 " fill-opacity="1" fill-rule="nonzero"/><path fill="#000080" d="M 178.671875 154.632812 L 182.636719 174.253906 C 183.601562 175.71875 185.222656 180.167969 187.5 187.601562 C 185.757812 180.023438 184.941406 175.359375 185.046875 173.609375 Z M 178.671875 154.632812 " fill-opacity="1" fill-rule="nonzero"/><path fill="#000080" d="M 151.625 182.875 C 151.664062 182.601562 151.75 182.34375 151.886719 182.105469 C 152.023438 181.867188 152.203125 181.664062 152.421875 181.496094 C 152.640625 181.328125 152.882812 181.207031 153.148438 181.136719 C 153.417969 181.066406 153.6875 181.046875 153.960938 181.082031 C 154.234375 181.121094 154.488281 181.207031 154.726562 181.34375 C 154.964844 181.484375 155.171875 181.660156 155.335938 181.878906 C 155.503906 182.097656 155.625 182.34375 155.695312 182.609375 C 155.769531 182.875 155.785156 183.144531 155.75 183.417969 C 155.714844 183.691406 155.625 183.949219 155.488281 184.1875 C 155.351562 184.425781 155.171875 184.628906 154.953125 184.796875 C 154.734375 184.964844 154.492188 185.085938 154.226562 185.15625 C 153.960938 185.230469 153.691406 185.246094 153.417969 185.210938 C 153.144531 185.175781 152.886719 185.085938 152.648438 184.949219 C 152.410156 184.8125 152.207031 184.632812 152.039062 184.414062 C 151.871094 184.195312 151.75 183.953125 151.679688 183.6875 C 151.609375 183.417969 151.589844 183.148438 151.625 182.875 Z M 151.625 182.875 " fill-opacity="1" fill-rule="nonzero"/><path fill="#000080" d="M 187.5 153.46875 L 186.253906 173.449219 C 186.808594 175.113281 187.222656 179.832031 187.5 187.601562 C 187.777344 179.832031 188.191406 175.113281 188.746094 173.449219 Z M 187.5 153.46875 " fill-opacity="1" fill-rule="nonzero"/><path fill="#000080" d="M 154.070312 173.742188 C 154.175781 173.488281 154.328125 173.265625 154.523438 173.070312 C 154.71875 172.875 154.941406 172.722656 155.195312 172.617188 C 155.453125 172.511719 155.714844 172.460938 155.992188 172.460938 C 156.269531 172.460938 156.535156 172.511719 156.789062 172.617188 C 157.042969 172.722656 157.269531 172.875 157.460938 173.070312 C 157.65625 173.265625 157.808594 173.488281 157.914062 173.742188 C 158.019531 174 158.070312 174.265625 158.070312 174.539062 C 158.070312 174.816406 158.019531 175.082031 157.914062 175.335938 C 157.808594 175.589844 157.65625 175.816406 157.460938 176.011719 C 157.269531 176.207031 157.042969 176.359375 156.789062 176.464844 C 156.535156 176.570312 156.269531 176.621094 155.992188 176.621094 C 155.714844 176.621094 155.453125 176.570312 155.195312 176.464844 C 154.941406 176.359375 154.71875 176.207031 154.523438 176.011719 C 154.328125 175.816406 154.175781 175.589844 154.070312 175.335938 C 153.964844 175.082031 153.914062 174.816406 153.914062 174.539062 C 153.914062 174.265625 153.964844 174 154.070312 173.742188 Z M 154.070312 173.742188 " fill-opacity="1" fill-rule="nonzero"/><path fill="#000080" d="M 196.328125 154.632812 L 189.953125 173.609375 C 190.058594 175.359375 189.242188 180.023438 187.5 187.601562 C 189.777344 180.167969 191.398438 175.71875 192.363281 174.253906 Z M 196.328125 154.632812 " fill-opacity="1" fill-rule="nonzero"/><path fill="#000080" d="M 158.792969 165.558594 C 158.960938 165.335938 159.164062 165.160156 159.402344 165.019531 C 159.644531 164.882812 159.898438 164.796875 160.171875 164.761719 C 160.445312 164.722656 160.714844 164.742188 160.980469 164.8125 C 161.25 164.886719 161.492188 165.003906 161.710938 165.171875 C 161.929688 165.339844 162.105469 165.542969 162.246094 165.78125 C 162.382812 166.023438 162.46875 166.277344 162.503906 166.550781 C 162.542969 166.824219 162.523438 167.097656 162.453125 167.363281 C 162.382812 167.628906 162.261719 167.871094 162.09375 168.089844 C 161.925781 168.308594 161.722656 168.488281 161.484375 168.625 C 161.246094 168.765625 160.988281 168.851562 160.714844 168.886719 C 160.441406 168.921875 160.171875 168.90625 159.90625 168.835938 C 159.640625 168.761719 159.398438 168.644531 159.179688 168.476562 C 158.960938 168.308594 158.78125 168.101562 158.644531 167.863281 C 158.503906 167.625 158.417969 167.367188 158.382812 167.09375 C 158.347656 166.820312 158.363281 166.550781 158.433594 166.285156 C 158.507812 166.019531 158.625 165.777344 158.792969 165.558594 Z M 158.792969 165.558594 " fill-opacity="1" fill-rule="nonzero"/><path fill="#000080" d="M 204.550781 158.042969 L 193.488281 174.722656 C 193.136719 176.441406 191.140625 180.734375 187.5 187.601562 C 191.621094 181.011719 194.339844 177.132812 195.652344 175.96875 Z M 204.550781 158.042969 " fill-opacity="1" fill-rule="nonzero"/><path fill="#000080" d="M 165.472656 158.871094 C 165.691406 158.703125 165.933594 158.585938 166.199219 158.511719 C 166.46875 158.441406 166.738281 158.421875 167.011719 158.460938 C 167.285156 158.496094 167.539062 158.582031 167.777344 158.71875 C 168.015625 158.859375 168.222656 159.039062 168.390625 159.257812 C 168.554688 159.476562 168.675781 159.71875 168.746094 159.984375 C 168.820312 160.25 168.835938 160.519531 168.800781 160.792969 C 168.765625 161.070312 168.675781 161.324219 168.539062 161.5625 C 168.402344 161.800781 168.222656 162.007812 168.003906 162.175781 C 167.785156 162.34375 167.542969 162.460938 167.277344 162.535156 C 167.011719 162.605469 166.742188 162.621094 166.46875 162.585938 C 166.195312 162.550781 165.9375 162.464844 165.699219 162.324219 C 165.460938 162.1875 165.257812 162.007812 165.089844 161.789062 C 164.921875 161.570312 164.800781 161.328125 164.730469 161.0625 C 164.660156 160.796875 164.640625 160.523438 164.675781 160.25 C 164.714844 159.976562 164.800781 159.722656 164.9375 159.484375 C 165.074219 159.242188 165.253906 159.039062 165.472656 158.871094 Z M 165.472656 158.871094 " fill-opacity="1" fill-rule="nonzero"/><path fill="#000080" d="M 211.613281 163.46875 L 196.617188 176.710938 C 195.832031 178.28125 192.792969 181.910156 187.5 187.601562 C 193.1875 182.304688 196.8125 179.261719 198.382812 178.476562 Z M 211.613281 163.46875 " fill-opacity="1" fill-rule="nonzero"/><path fill="#000080" d="M 173.652344 154.144531 C 173.90625 154.039062 174.171875 153.988281 174.449219 153.988281 C 174.726562 153.988281 174.988281 154.039062 175.246094 154.144531 C 175.5 154.25 175.722656 154.402344 175.917969 154.597656 C 176.113281 154.792969 176.265625 155.015625 176.371094 155.269531 C 176.476562 155.527344 176.527344 155.792969 176.527344 156.066406 C 176.527344 156.34375 176.476562 156.609375 176.371094 156.863281 C 176.265625 157.121094 176.113281 157.34375 175.917969 157.539062 C 175.722656 157.734375 175.5 157.886719 175.246094 157.992188 C 174.988281 158.097656 174.726562 158.148438 174.449219 158.148438 C 174.171875 158.148438 173.90625 158.097656 173.652344 157.992188 C 173.398438 157.886719 173.171875 157.734375 172.980469 157.539062 C 172.785156 157.34375 172.632812 157.121094 172.527344 156.863281 C 172.421875 156.609375 172.371094 156.34375 172.371094 156.066406 C 172.371094 155.792969 172.421875 155.527344 172.527344 155.269531 C 172.632812 155.015625 172.785156 154.792969 172.980469 154.597656 C 173.171875 154.402344 173.398438 154.25 173.652344 154.144531 Z M 173.652344 154.144531 " fill-opacity="1" fill-rule="nonzero"/><path fill="#000080" d="M 217.035156 170.535156 L 199.121094 179.445312 C 197.957031 180.757812 194.085938 183.476562 187.5 187.601562 C 194.363281 183.957031 198.652344 181.960938 200.371094 181.609375 Z M 217.035156 170.535156 " fill-opacity="1" fill-rule="nonzero"/><path fill="#000080" d="M 182.777344 151.699219 C 183.050781 151.664062 183.320312 151.679688 183.585938 151.75 C 183.851562 151.824219 184.097656 151.941406 184.316406 152.109375 C 184.535156 152.277344 184.710938 152.480469 184.847656 152.722656 C 184.988281 152.960938 185.074219 153.214844 185.109375 153.488281 C 185.144531 153.765625 185.128906 154.035156 185.058594 154.300781 C 184.984375 154.566406 184.867188 154.808594 184.699219 155.027344 C 184.53125 155.246094 184.328125 155.425781 184.089844 155.5625 C 183.847656 155.703125 183.59375 155.789062 183.320312 155.824219 C 183.046875 155.859375 182.777344 155.84375 182.511719 155.773438 C 182.242188 155.699219 182 155.582031 181.78125 155.414062 C 181.5625 155.246094 181.386719 155.042969 181.246094 154.800781 C 181.109375 154.5625 181.023438 154.308594 180.988281 154.035156 C 180.949219 153.757812 180.96875 153.488281 181.039062 153.222656 C 181.109375 152.957031 181.230469 152.714844 181.398438 152.496094 C 181.566406 152.277344 181.769531 152.097656 182.007812 151.960938 C 182.246094 151.820312 182.503906 151.734375 182.777344 151.699219 Z M 182.777344 151.699219 " fill-opacity="1" fill-rule="nonzero"/><path fill="#000080" d="M 220.441406 178.769531 L 200.835938 182.734375 C 199.371094 183.699219 194.925781 185.324219 187.5 187.601562 C 195.070312 185.859375 199.730469 185.039062 201.480469 185.144531 Z M 220.441406 178.769531 " fill-opacity="1" fill-rule="nonzero"/><path fill="#000080" d="M 192.222656 151.699219 C 192.496094 151.734375 192.753906 151.820312 192.992188 151.960938 C 193.230469 152.097656 193.433594 152.277344 193.601562 152.496094 C 193.769531 152.714844 193.890625 152.957031 193.960938 153.222656 C 194.03125 153.488281 194.050781 153.757812 194.011719 154.035156 C 193.976562 154.308594 193.890625 154.5625 193.753906 154.800781 C 193.613281 155.042969 193.4375 155.246094 193.21875 155.414062 C 193 155.582031 192.757812 155.699219 192.488281 155.773438 C 192.222656 155.84375 191.953125 155.859375 191.679688 155.824219 C 191.40625 155.789062 191.152344 155.703125 190.910156 155.5625 C 190.671875 155.425781 190.46875 155.246094 190.300781 155.027344 C 190.132812 154.808594 190.015625 154.566406 189.941406 154.300781 C 189.871094 154.035156 189.855469 153.765625 189.890625 153.488281 C 189.925781 153.214844 190.011719 152.960938 190.152344 152.722656 C 190.289062 152.480469 190.464844 152.277344 190.683594 152.109375 C 190.902344 151.941406 191.148438 151.824219 191.414062 151.75 C 191.679688 151.679688 191.949219 151.664062 192.222656 151.699219 Z M 192.222656 151.699219 " fill-opacity="1" fill-rule="nonzero"/><path fill="#000080" d="M 221.605469 187.601562 L 201.640625 186.351562 C 199.976562 186.910156 195.261719 187.324219 187.5 187.601562 C 195.261719 187.878906 199.976562 188.296875 201.640625 188.851562 Z M 221.605469 187.601562 " fill-opacity="1" fill-rule="nonzero"/><path fill="#000080" d="M 201.347656 154.144531 C 201.601562 154.25 201.828125 154.402344 202.019531 154.597656 C 202.214844 154.792969 202.367188 155.015625 202.472656 155.269531 C 202.578125 155.527344 202.628906 155.792969 202.628906 156.066406 C 202.628906 156.34375 202.578125 156.609375 202.472656 156.863281 C 202.367188 157.121094 202.214844 157.34375 202.019531 157.539062 C 201.828125 157.734375 201.601562 157.886719 201.347656 157.992188 C 201.09375 158.097656 200.828125 158.148438 200.550781 158.148438 C 200.273438 158.148438 200.011719 158.097656 199.753906 157.992188 C 199.5 157.886719 199.277344 157.734375 199.082031 157.539062 C 198.886719 157.34375 198.734375 157.121094 198.628906 156.863281 C 198.523438 156.609375 198.472656 156.34375 198.472656 156.066406 C 198.472656 155.792969 198.523438 155.527344 198.628906 155.269531 C 198.734375 155.015625 198.886719 154.792969 199.082031 154.597656 C 199.277344 154.402344 199.5 154.25 199.753906 154.144531 C 200.011719 154.039062 200.273438 153.988281 200.550781 153.988281 C 200.828125 153.988281 201.09375 154.039062 201.347656 154.144531 Z M 201.347656 154.144531 " fill-opacity="1" fill-rule="nonzero"/><path fill="#000080" d="M 220.441406 196.4375 L 201.480469 190.058594 C 199.730469 190.164062 195.070312 189.34375 187.5 187.601562 C 194.925781 189.882812 199.371094 191.503906 200.835938 192.472656 Z M 220.441406 196.4375 " fill-opacity="1" fill-rule="nonzero"/><path fill="#000080" d="M 209.527344 158.871094 C 209.746094 159.039062 209.925781 159.242188 210.0625 159.484375 C 210.199219 159.722656 210.285156 159.976562 210.324219 160.25 C 210.359375 160.523438 210.339844 160.796875 210.269531 161.0625 C 210.199219 161.328125 210.078125 161.570312 209.910156 161.789062 C 209.742188 162.007812 209.539062 162.1875 209.300781 162.324219 C 209.0625 162.464844 208.804688 162.550781 208.53125 162.585938 C 208.257812 162.621094 207.988281 162.605469 207.722656 162.535156 C 207.457031 162.460938 207.214844 162.34375 206.996094 162.175781 C 206.777344 162.007812 206.597656 161.800781 206.460938 161.5625 C 206.320312 161.324219 206.234375 161.070312 206.199219 160.792969 C 206.164062 160.519531 206.179688 160.25 206.253906 159.984375 C 206.324219 159.71875 206.445312 159.476562 206.609375 159.257812 C 206.777344 159.039062 206.984375 158.859375 207.222656 158.71875 C 207.460938 158.582031 207.714844 158.496094 207.988281 158.460938 C 208.261719 158.421875 208.53125 158.441406 208.800781 158.511719 C 209.066406 158.585938 209.308594 158.703125 209.527344 158.871094 Z M 209.527344 158.871094 " fill-opacity="1" fill-rule="nonzero"/><path fill="#000080" d="M 217.035156 204.667969 L 200.371094 193.597656 C 198.652344 193.246094 194.363281 191.246094 187.5 187.601562 C 194.085938 191.726562 197.957031 194.445312 199.121094 195.761719 Z M 217.035156 204.667969 " fill-opacity="1" fill-rule="nonzero"/><path fill="#000080" d="M 216.207031 165.558594 C 216.375 165.777344 216.492188 166.019531 216.566406 166.285156 C 216.636719 166.550781 216.652344 166.820312 216.617188 167.09375 C 216.582031 167.367188 216.496094 167.625 216.355469 167.863281 C 216.21875 168.101562 216.039062 168.308594 215.820312 168.476562 C 215.601562 168.644531 215.359375 168.761719 215.09375 168.835938 C 214.828125 168.90625 214.558594 168.921875 214.285156 168.886719 C 214.011719 168.851562 213.753906 168.765625 213.515625 168.625 C 213.277344 168.488281 213.074219 168.308594 212.90625 168.089844 C 212.738281 167.871094 212.617188 167.628906 212.546875 167.363281 C 212.476562 167.097656 212.457031 166.824219 212.496094 166.550781 C 212.53125 166.277344 212.617188 166.023438 212.753906 165.78125 C 212.894531 165.542969 213.070312 165.339844 213.289062 165.171875 C 213.507812 165.003906 213.75 164.886719 214.019531 164.8125 C 214.285156 164.742188 214.554688 164.722656 214.828125 164.761719 C 215.101562 164.796875 215.355469 164.882812 215.597656 165.019531 C 215.835938 165.160156 216.039062 165.335938 216.207031 165.558594 Z M 216.207031 165.558594 " fill-opacity="1" fill-rule="nonzero"/><path fill="#000080" d="M 211.613281 211.738281 L 198.382812 196.726562 C 196.8125 195.941406 193.1875 192.898438 187.5 187.601562 C 192.792969 193.292969 195.832031 196.921875 196.617188 198.492188 Z M 211.613281 211.738281 " fill-opacity="1" fill-rule="nonzero"/><path fill="#000080" d="M 220.929688 173.742188 C 221.035156 174 221.085938 174.265625 221.085938 174.539062 C 221.085938 174.816406 221.035156 175.082031 220.929688 175.335938 C 220.824219 175.589844 220.671875 175.816406 220.476562 176.011719 C 220.28125 176.207031 220.058594 176.359375 219.804688 176.464844 C 219.546875 176.570312 219.285156 176.621094 219.007812 176.621094 C 218.730469 176.621094 218.464844 176.570312 218.210938 176.464844 C 217.957031 176.359375 217.730469 176.207031 217.539062 176.011719 C 217.34375 175.816406 217.191406 175.589844 217.085938 175.335938 C 216.980469 175.082031 216.929688 174.816406 216.929688 174.539062 C 216.929688 174.265625 216.980469 174 217.085938 173.742188 C 217.191406 173.488281 217.34375 173.265625 217.539062 173.070312 C 217.730469 172.875 217.957031 172.722656 218.210938 172.617188 C 218.464844 172.511719 218.730469 172.460938 219.007812 172.460938 C 219.285156 172.460938 219.546875 172.511719 219.804688 172.617188 C 220.058594 172.722656 220.28125 172.875 220.476562 173.070312 C 220.671875 173.265625 220.824219 173.488281 220.929688 173.742188 Z M 220.929688 173.742188 " fill-opacity="1" fill-rule="nonzero"/><path fill="#000080" d="M 204.550781 217.160156 L 195.652344 199.234375 C 194.339844 198.070312 191.621094 194.191406 187.5 187.601562 C 191.140625 194.46875 193.136719 198.761719 193.488281 200.484375 Z M 204.550781 217.160156 " fill-opacity="1" fill-rule="nonzero"/><path fill="#000080" d="M 223.375 182.875 C 223.410156 183.148438 223.390625 183.417969 223.320312 183.6875 C 223.25 183.953125 223.128906 184.195312 222.960938 184.414062 C 222.792969 184.632812 222.589844 184.8125 222.351562 184.949219 C 222.113281 185.085938 221.855469 185.175781 221.582031 185.210938 C 221.308594 185.246094 221.039062 185.230469 220.773438 185.15625 C 220.507812 185.085938 220.265625 184.964844 220.046875 184.796875 C 219.828125 184.628906 219.648438 184.425781 219.511719 184.1875 C 219.375 183.949219 219.285156 183.691406 219.25 183.417969 C 219.214844 183.144531 219.230469 182.875 219.304688 182.609375 C 219.375 182.34375 219.496094 182.097656 219.664062 181.878906 C 219.828125 181.660156 220.035156 181.484375 220.273438 181.34375 C 220.511719 181.207031 220.765625 181.121094 221.039062 181.082031 C 221.3125 181.046875 221.582031 181.066406 221.851562 181.136719 C 222.117188 181.207031 222.359375 181.328125 222.578125 181.496094 C 222.796875 181.664062 222.976562 181.867188 223.113281 182.105469 C 223.25 182.34375 223.335938 182.601562 223.375 182.875 Z M 223.375 182.875 " fill-opacity="1" fill-rule="nonzero"/><path fill="#000080" d="M 196.328125 220.570312 L 192.363281 200.949219 C 191.398438 199.484375 189.777344 195.035156 187.5 187.601562 C 189.242188 195.179688 190.058594 199.84375 189.953125 201.597656 Z M 196.328125 220.570312 " fill-opacity="1" fill-rule="nonzero"/><path fill="#000080" d="M 194.15625 187.601562 C 194.15625 188.039062 194.113281 188.472656 194.027344 188.902344 C 193.941406 189.332031 193.816406 189.746094 193.648438 190.152344 C 193.480469 190.554688 193.277344 190.9375 193.03125 191.300781 C 192.789062 191.664062 192.515625 192.003906 192.207031 192.3125 C 191.894531 192.621094 191.558594 192.898438 191.195312 193.140625 C 190.832031 193.382812 190.449219 193.589844 190.046875 193.753906 C 189.644531 193.921875 189.226562 194.050781 188.796875 194.132812 C 188.371094 194.21875 187.9375 194.261719 187.5 194.261719 C 187.0625 194.261719 186.628906 194.21875 186.203125 194.132812 C 185.773438 194.050781 185.355469 193.921875 184.953125 193.753906 C 184.550781 193.589844 184.167969 193.382812 183.804688 193.140625 C 183.441406 192.898438 183.105469 192.621094 182.792969 192.3125 C 182.484375 192.003906 182.210938 191.664062 181.96875 191.300781 C 181.722656 190.9375 181.519531 190.554688 181.351562 190.152344 C 181.183594 189.746094 181.058594 189.332031 180.972656 188.902344 C 180.886719 188.472656 180.84375 188.039062 180.84375 187.601562 C 180.84375 187.164062 180.886719 186.730469 180.972656 186.304688 C 181.058594 185.875 181.183594 185.457031 181.351562 185.054688 C 181.519531 184.648438 181.722656 184.265625 181.96875 183.902344 C 182.210938 183.539062 182.484375 183.203125 182.792969 182.894531 C 183.105469 182.582031 183.441406 182.308594 183.804688 182.066406 C 184.167969 181.820312 184.550781 181.617188 184.953125 181.449219 C 185.355469 181.28125 185.773438 181.15625 186.203125 181.070312 C 186.628906 180.984375 187.0625 180.941406 187.5 180.941406 C 187.9375 180.941406 188.371094 180.984375 188.796875 181.070312 C 189.226562 181.15625 189.644531 181.28125 190.046875 181.449219 C 190.449219 181.617188 190.832031 181.820312 191.195312 182.066406 C 191.558594 182.308594 191.894531 182.582031 192.207031 182.894531 C 192.515625 183.203125 192.789062 183.539062 193.03125 183.902344 C 193.277344 184.265625 193.480469 184.648438 193.648438 185.054688 C 193.816406 185.457031 193.941406 185.875 194.027344 186.304688 C 194.113281 186.730469 194.15625 187.164062 194.15625 187.601562 Z M 194.15625 187.601562 " fill-opacity="1" fill-rule="nonzero"/></svg>