<svg width="26" height="26" viewBox="0 0 26 26" fill="none" xmlns="http://www.w3.org/2000/svg">
<path d="M21.5219 3.00282C18.4459 2.99418 7.10042 3.00871 4.47811 3.00282C3.66211 3.00282 3 3.64471 3 4.43523V21.568C3 22.3587 3.66211 23 4.47811 23H21.5219C22.3383 23 23 22.3587 23 21.5678V4.43523C23 3.64471 22.3383 3.00282 21.5219 3.00282Z" fill="#0077B5"/>
<path d="M13.8654 19.665V14.6379C13.8362 13.7141 14.3884 12.852 15.4995 12.8133C16.5823 12.8133 17.0155 13.6387 17.0155 14.849V19.6648H20.0079V14.5029C20.0079 11.7377 18.5317 10.451 16.5627 10.451C14.9484 10.451 14.2393 11.3531 13.8454 11.9676L13.8654 10.6623H10.873C10.9119 11.5069 10.8728 19.665 10.8728 19.665H13.8654ZM9.21636 15.761V10.6621H6.22352V19.6648H9.21657C9.21594 18.7196 9.21762 16.693 9.21636 15.761ZM7.72057 9.43327C8.76394 9.43327 9.41362 8.74191 9.41362 7.87812C9.40499 5.79455 6.04436 5.81771 6.0471 7.87791C6.04478 8.74843 6.71236 9.44401 7.72057 9.43327Z" fill="white"/>
</svg>
