<svg width="22" height="16" viewBox="0 0 22 16" fill="none" xmlns="http://www.w3.org/2000/svg">
<path d="M0.200001 1.82389C0.200001 1.55234 0.313786 1.29191 0.516325 1.09989C0.718865 0.907877 0.993567 0.800003 1.28 0.800003H20.72C21.0064 0.800003 21.2811 0.907877 21.4837 1.09989C21.6862 1.29191 21.8 1.55234 21.8 1.82389C21.8 2.09545 21.6862 2.35588 21.4837 2.54789C21.2811 2.73991 21.0064 2.84778 20.72 2.84778H1.28C0.993567 2.84778 0.718865 2.73991 0.516325 2.54789C0.313786 2.35588 0.200001 2.09545 0.200001 1.82389ZM0.200001 8C0.200001 7.72845 0.313786 7.46802 0.516325 7.276C0.718865 7.08399 0.993567 6.97611 1.28 6.97611H20.72C21.0064 6.97611 21.2811 7.08399 21.4837 7.276C21.6862 7.46802 21.8 7.72845 21.8 8C21.8 8.27156 21.6862 8.53199 21.4837 8.724C21.2811 8.91602 21.0064 9.02389 20.72 9.02389H1.28C0.993567 9.02389 0.718865 8.91602 0.516325 8.724C0.313786 8.53199 0.200001 8.27156 0.200001 8ZM1.28 13.1522C0.993567 13.1522 0.718865 13.2601 0.516325 13.4521C0.313786 13.6441 0.200001 13.9046 0.200001 14.1761C0.200001 14.4477 0.313786 14.7081 0.516325 14.9001C0.718865 15.0921 0.993567 15.2 1.28 15.2H20.72C21.0064 15.2 21.2811 15.0921 21.4837 14.9001C21.6862 14.7081 21.8 14.4477 21.8 14.1761C21.8 13.9046 21.6862 13.6441 21.4837 13.4521C21.2811 13.2601 21.0064 13.1522 20.72 13.1522H1.28Z" fill="white"/>
</svg>
