<svg width="118" height="24" viewBox="0 0 118 24" fill="none" xmlns="http://www.w3.org/2000/svg">
<path d="M9.24271 24C7.61045 24 6.1363 23.7013 4.82029 23.104C3.51448 22.496 2.4382 21.632 1.59146 20.512C0.754924 19.3813 0.224437 18.0373 0 16.48L4.34591 15.808C4.65196 17.1307 5.28447 18.1493 6.24342 18.864C7.20238 19.5787 8.29396 19.936 9.51816 19.936C10.2017 19.936 10.8648 19.824 11.5075 19.6C12.1502 19.376 12.6756 19.0453 13.0836 18.608C13.5019 18.1707 13.711 17.632 13.711 16.992C13.711 16.7573 13.6753 16.5333 13.6039 16.32C13.5427 16.096 13.4356 15.888 13.2826 15.696C13.1296 15.504 12.9102 15.3227 12.6246 15.152C12.3491 14.9813 11.9972 14.8267 11.5687 14.688L5.84556 12.928C5.41709 12.8 4.91721 12.6187 4.34591 12.384C3.78482 12.1493 3.23903 11.8133 2.70854 11.376C2.17806 10.9387 1.73428 10.3627 1.37723 9.648C1.03037 8.92267 0.85694 8.01067 0.85694 6.912C0.85694 5.36533 1.2293 4.08 1.97402 3.056C2.71875 2.032 3.71341 1.26933 4.95801 0.768C6.20262 0.266666 7.57984 0.0213324 9.08969 0.0319996C10.6097 0.0533326 11.9666 0.325333 13.1602 0.848C14.3538 1.37067 15.3535 2.13333 16.1594 3.136C16.9654 4.128 17.5469 5.344 17.9039 6.784L13.405 7.584C13.2418 6.83733 12.9408 6.208 12.5021 5.696C12.0635 5.184 11.5381 4.79467 10.926 4.528C10.3241 4.26133 9.69159 4.11733 9.02848 4.096C8.37557 4.07467 7.75837 4.17067 7.17688 4.384C6.60558 4.58667 6.1363 4.88533 5.76904 5.28C5.41199 5.67467 5.23346 6.144 5.23346 6.688C5.23346 7.18933 5.38138 7.6 5.67723 7.92C5.97308 8.22933 6.34544 8.48 6.79431 8.672C7.24319 8.864 7.70226 9.024 8.17154 9.152L11.9972 10.24C12.5685 10.4 13.201 10.6133 13.8947 10.88C14.5884 11.136 15.2515 11.4987 15.884 11.968C16.5267 12.4267 17.0521 13.0347 17.4602 13.792C17.8784 14.5493 18.0876 15.5093 18.0876 16.672C18.0876 17.9093 17.8376 18.992 17.3377 19.92C16.8481 20.8373 16.1849 21.6 15.3484 22.208C14.5119 22.8053 13.5631 23.2533 12.5021 23.552C11.4514 23.8507 10.3649 24 9.24271 24Z" fill="#4958EF"/>
<path d="M28.888 24C27.2251 24 25.7663 23.6107 24.5115 22.832C23.2567 22.0533 22.2773 20.9813 21.5734 19.616C20.8797 18.24 20.5329 16.6613 20.5329 14.88C20.5329 13.0773 20.8899 11.4933 21.604 10.128C22.3181 8.752 23.3026 7.68 24.5574 6.912C25.8122 6.144 27.2558 5.76 28.888 5.76C30.5509 5.76 32.0097 6.14933 33.2645 6.928C34.5295 7.70667 35.514 8.784 36.2179 10.16C36.9218 11.5253 37.2738 13.0987 37.2738 14.88C37.2738 16.672 36.9167 18.256 36.2026 19.632C35.4987 20.9973 34.5142 22.0693 33.2492 22.848C31.9944 23.616 30.5407 24 28.888 24ZM28.888 19.936C30.2244 19.936 31.2191 19.4667 31.872 18.528C32.5351 17.5787 32.8667 16.3627 32.8667 14.88C32.8667 13.344 32.53 12.1173 31.8567 11.2C31.1936 10.2827 30.204 9.824 28.888 9.824C27.9801 9.824 27.2354 10.0373 26.6539 10.464C26.0724 10.8907 25.6388 11.4827 25.3531 12.24C25.0777 12.9973 24.94 13.8773 24.94 14.88C24.94 16.4267 25.2715 17.6587 25.9346 18.576C26.6079 19.4827 27.5924 19.936 28.888 19.936Z" fill="#4958EF"/>
<path d="M42.0161 23.52V6.304C42.0161 5.86667 42.0263 5.37067 42.0467 4.816C42.0671 4.26133 42.1488 3.70133 42.2916 3.136C42.4446 2.57067 42.7201 2.05867 43.1179 1.6C43.628 1.00267 44.1789 0.597332 44.7706 0.383999C45.3725 0.159999 45.954 0.0426655 46.5151 0.0319996C47.0762 0.0106665 47.5556 0 47.9535 0H50.004V3.52H48.1065C47.4536 3.52 46.969 3.696 46.6528 4.048C46.3365 4.38933 46.1784 4.8 46.1784 5.28V23.52H42.0161ZM39.4147 9.6V6.24H50.004V9.6H39.4147Z" fill="#4958EF"/>
<path d="M62.3606 23.52C61.218 23.744 60.0958 23.84 58.994 23.808C57.9024 23.7867 56.9231 23.5893 56.0559 23.216C55.199 22.832 54.5461 22.2187 54.0972 21.376C53.6892 20.5867 53.4749 19.7867 53.4545 18.976C53.4341 18.1547 53.4239 17.2267 53.4239 16.192V1.44H57.5862V15.936C57.5862 16.608 57.5913 17.216 57.6015 17.76C57.6219 18.2933 57.729 18.72 57.9229 19.04C58.2901 19.648 58.8767 19.9787 59.6826 20.032C60.4886 20.0853 61.3812 20.0427 62.3606 19.904V23.52ZM50.6083 9.6V6.24H62.3606V9.6H50.6083Z" fill="#4958EF"/>
<path d="M66.3495 23.52V0H70.5118V23.52H66.3495Z" fill="#4958EF"/>
<path d="M75.4055 3.84V0H79.5678V3.84H75.4055ZM75.4055 23.52V6.24H79.5678V23.52H75.4055Z" fill="#4958EF"/>
<path d="M91.8373 24C90.1438 24 88.6492 23.6213 87.3536 22.864C86.0682 22.096 85.0583 21.0453 84.3237 19.712C83.5994 18.368 83.2373 16.832 83.2373 15.104C83.2373 13.216 83.5943 11.5733 84.3084 10.176C85.0226 8.77867 86.007 7.696 87.2618 6.928C88.5166 6.14933 89.9602 5.76 91.5924 5.76C93.3267 5.76 94.8009 6.18667 96.0149 7.04C97.2289 7.89333 98.1266 9.09333 98.7081 10.64C99.2896 12.1867 99.4936 14.0053 99.3202 16.096H95.2038V14.496C95.2038 12.736 94.9335 11.472 94.3928 10.704C93.8623 9.92533 92.9901 9.536 91.7761 9.536C90.358 9.536 89.3124 9.98933 88.639 10.896C87.9759 11.792 87.6444 13.12 87.6444 14.88C87.6444 16.4907 87.9759 17.7387 88.639 18.624C89.3124 19.4987 90.2968 19.936 91.5924 19.936C92.4086 19.936 93.1074 19.7493 93.6889 19.376C94.2704 19.0027 94.7141 18.464 95.0202 17.76L99.1825 19.008C98.5602 20.5867 97.5757 21.8133 96.2291 22.688C94.8927 23.5627 93.4287 24 91.8373 24ZM86.359 16.096V12.864H97.3156V16.096H86.359Z" fill="#4958EF"/>
<path d="M110.457 24C108.764 24 107.269 23.6213 105.974 22.864C104.688 22.096 103.678 21.0453 102.944 19.712C102.219 18.368 101.857 16.832 101.857 15.104C101.857 13.216 102.214 11.5733 102.928 10.176C103.643 8.77867 104.627 7.696 105.882 6.928C107.137 6.14933 108.58 5.76 110.212 5.76C111.947 5.76 113.421 6.18667 114.635 7.04C115.849 7.89333 116.747 9.09333 117.328 10.64C117.91 12.1867 118.114 14.0053 117.94 16.096H113.824V14.496C113.824 12.736 113.554 11.472 113.013 10.704C112.482 9.92533 111.61 9.536 110.396 9.536C108.978 9.536 107.932 9.98933 107.259 10.896C106.596 11.792 106.264 13.12 106.264 14.88C106.264 16.4907 106.596 17.7387 107.259 18.624C107.932 19.4987 108.917 19.936 110.212 19.936C111.029 19.936 111.727 19.7493 112.309 19.376C112.89 19.0027 113.334 18.464 113.64 17.76L117.803 19.008C117.18 20.5867 116.196 21.8133 114.849 22.688C113.513 23.5627 112.049 24 110.457 24ZM104.979 16.096V12.864H115.936V16.096H104.979Z" fill="#4958EF"/>
</svg>
