<svg width="16" height="20" viewBox="0 0 16 20" fill="none" xmlns="http://www.w3.org/2000/svg">
<path fill-rule="evenodd" clip-rule="evenodd" d="M0 6.8V7.86667C0.135593 8 0.135593 8.4 0.135593 8.53333C0.135593 8.8 0.271186 9.06667 0.271186 9.2C0.40678 9.6 0.542373 10 0.813559 10.4C1.35593 10.9333 2.16949 11.4667 2.84746 11.6C3.25424 11.2 3.38983 10.4 3.11864 9.86667C2.98305 9.33333 2.57627 9.06667 2.44068 8.4C1.62712 5.2 4.74576 1.6 8.67797 1.73333C10.0339 1.86667 10.9831 2.4 11.7966 3.06667C12.4746 3.73333 13.0169 4.8 13.1525 6C13.4237 9.06667 11.7966 13.0667 8.81356 12.5333C5.15254 11.8667 10.1695 6.13333 8 4.66667C6.77966 3.86667 5.55932 4.66667 5.15254 5.46667C4.61017 6.53333 4.33898 7.86667 4.88136 9.06667C4.88136 9.2 5.01695 9.33333 5.01695 9.46667C5.01695 9.6 4.88136 9.86667 4.88136 9.86667C4.47458 12 3.79661 13.8667 3.38983 16C3.25424 17.2 3.25424 18.9333 3.38983 20C3.79661 19.8667 4.47458 19.2 4.61017 18.8C5.69492 17.4667 6.23729 15.0667 6.50847 13.3333C7.18644 13.4667 7.86441 14.5333 9.76271 14.5333C13.2881 14.5333 15.4576 11.4667 15.8644 8.4C15.8644 8.13333 16 7.46667 16 7.33333V6.4C15.8644 6.13333 15.8644 5.73333 15.8644 5.6C15.4576 2.13333 12.6102 0.4 9.49153 0C9.22034 0 8.81356 0 8.67797 0H7.72881C7.45763 0 7.05085 0 6.91525 0C3.9322 0.4 1.08475 2.4 0.271186 5.33333C0.135593 5.86667 0 6.8 0 6.8Z" fill="white"/>
</svg>
