<svg width="22" height="26" viewBox="0 0 22 26" fill="none" xmlns="http://www.w3.org/2000/svg">
<path d="M18.4118 9.67442C18.4118 7.75006 17.6309 5.90451 16.2409 4.54378C14.8509 3.18305 12.9657 2.4186 11 2.4186C9.03428 2.4186 7.14907 3.18305 5.75909 4.54378C4.36912 5.90451 3.58824 7.75006 3.58824 9.67442V19.3488H18.4118V9.67442ZM20.8824 20.1554L21.3765 20.8C21.4453 20.8898 21.4872 20.9967 21.4975 21.1085C21.5078 21.2203 21.4861 21.3328 21.4348 21.4332C21.3835 21.5336 21.3046 21.6181 21.2071 21.6771C21.1095 21.7362 20.9971 21.7674 20.8824 21.7674H1.11765C1.00294 21.7674 0.890504 21.7362 0.792931 21.6771C0.695358 21.6181 0.616504 21.5336 0.565207 21.4332C0.51391 21.3328 0.492195 21.2203 0.502496 21.1085C0.512797 20.9967 0.554707 20.8898 0.62353 20.8L1.11765 20.1554V9.67442C1.11765 7.1086 2.15882 4.64788 4.01212 2.83357C5.86542 1.01927 8.37904 0 11 0C13.621 0 16.1346 1.01927 17.9879 2.83357C19.8412 4.64788 20.8824 7.1086 20.8824 9.67442V20.1554ZM7.91176 22.9767H14.0882C14.0882 23.7786 13.7629 24.5475 13.1837 25.1145C12.6046 25.6815 11.8191 26 11 26C10.1809 26 9.39544 25.6815 8.81629 25.1145C8.23713 24.5475 7.91176 23.7786 7.91176 22.9767Z" fill="white"/>
</svg>
